<svg id="Layer_1" data-name="Layer 1" xmlns="http://www.w3.org/2000/svg" viewBox="0 0 846.11 846.1"><defs><style>.cls-1{fill:#fefefe;}.cls-2{fill:#fee7d1;}.cls-3{fill:#050404;}.cls-4{fill:#23222b;}.cls-5{fill:#2a2932;}.cls-6{fill:#8aa683;}</style></defs><title>LuvLeeColored</title><path class="cls-1" d="M.56,421.51Q.56,211.29.51,1.05C.51-1.07,1-1.54,3.1-1.54q420.47.08,840.93,0c2.11,0,2.59.47,2.59,2.59q-.09,420.45,0,840.92c0,2.11-.48,2.59-2.59,2.59q-420.46-.07-840.93,0C1,844.56.51,844.09.51,842Q.6,631.75.56,421.51ZM627.16,342a266.64,266.64,0,0,0,11.06-44.57,202.56,202.56,0,0,0,2.38-23.39c.52-16.67-.17-33.27-3.13-49.78A250.66,250.66,0,0,0,628.65,189a227.45,227.45,0,0,0-17.12-38.5,224.58,224.58,0,0,0-30.91-43A231.54,231.54,0,0,0,532.25,67a227.78,227.78,0,0,0-44.71-21.66,223.75,223.75,0,0,0-43.46-10.88,232.27,232.27,0,0,0-24.49-2.53c-8-.26-16.1-.22-24.18.3a241.34,241.34,0,0,0-29.16,3.57,227.51,227.51,0,0,0-55.4,18,236.34,236.34,0,0,0-37.25,22,229.82,229.82,0,0,0-27.91,23.91A221.67,221.67,0,0,0,229,118.26a228.6,228.6,0,0,0-22.5,33.56,233.91,233.91,0,0,0-23,61.09,220.05,220.05,0,0,0-5.13,37.4,250.3,250.3,0,0,0,.28,29,234.81,234.81,0,0,0,3.09,25.28,231.65,231.65,0,0,0,19.71,60.12A218.89,218.89,0,0,0,220,395.85,234.45,234.45,0,0,0,252,432.58a246.21,246.21,0,0,0,34.89,26.83,217.94,217.94,0,0,0,42.62,20.84,230.63,230.63,0,0,0,44.19,11.4,193.25,193.25,0,0,0,22.52,2.45c12.16.37,24.35.6,36.53-.86A259.37,259.37,0,0,0,459.87,489a231.8,231.8,0,0,0,65.45-25.58,240.57,240.57,0,0,0,47-35.9c4.75-4.65,9.23-9.6,13.5-14.68,2.5-3,5.54-5.61,7-9.38,5.4.67,10.78,1.45,16.19,2,14.18,1.38,28.31,1.33,42.16-2.56,11.67-3.28,21.51-9.19,27.56-20.2a20.81,20.81,0,0,0,2.91-12.1c-.63-6.75-4.61-11.33-9.93-14.93-6.77-4.57-14.42-7.05-22.22-9.18C642.12,344.46,634.59,343.48,627.16,342ZM364.08,703.59c2.72-.05,2.75,0,2.14,2.49-.78,3.28-1.62,6.55-2.47,9.81-.45,1.71-.5,3.34,1.55,3.87s2.85-.9,3.27-2.61c1-4.09,2.17-8.15,3-12.28.32-1.56.92-1.94,2.37-2,4.31-.13,8.64-.23,12.92-.68,1.93-.2,2.42.52,2.78,2.1,1.06,4.76,2.24,9.48,3.33,14.23.39,1.73,1.31,2.86,3.13,2.32,1.65-.49,2.15-1.72,1.67-3.56-1.13-4.25-1.94-8.59-3.09-12.84-.53-2-.24-2.81,1.94-2.55,1.71.2,3.11-.38,3.2-2.28.1-2.11-1.5-2.83-3.22-2.57-3,.46-3.6-1.07-4.09-3.64-2.65-14.11-5.52-28.18-7.65-42.37-.39-2.61-2.13-2.9-4-3s-2.52,1.23-2.69,2.93c-.14,1.3-.42,2.59-.64,3.88-2.22,13.33-6,26.32-8.74,39.53-.63,3-1.56,4.67-4.93,4.3-1.74-.19-3.28.68-3.17,2.71S362.47,703.77,364.08,703.59Zm47-93.7c0,4.35,1,7.92,4.79,9.88,5.36,2.81,10.82,2.86,16.05-.43,1.65-1,3.23-3.54,4.57-3.37,1.9.25,1.89,3.27,2.89,5a2.19,2.19,0,0,0,2.61,1.16,2.22,2.22,0,0,0,1.87-2.45,8.82,8.82,0,0,0-.73-2.69c-.79-1.88-2.54-3.82-2.31-5.54s2.78-2.83,4.35-4.17c1.13-1,1.54-2.18.55-3.46a2.41,2.41,0,0,0-3.51-.45,15.71,15.71,0,0,0-2.88,2.23c-1.19,1.24-1.86,1-2.67-.39-3.07-5.48-6.15-11-9.37-16.34-.85-1.41-.53-2.31.22-3.5,2-3.17,4.2-6.22,5.42-9.83a13.86,13.86,0,0,0-.76-11.19c-2.22-4.33-6.82-6.22-11.71-4.89-4.22,1.15-6.14,4.11-6,9.25a28,28,0,0,0,2.41,9.77c1.16,2.86,3.51,5.76,3.33,8.51s-2.84,5.57-4.32,8.39C413.42,600.05,411.35,604.86,411.05,609.89ZM259.11,577.71q-.51-11.1-1-22.2c-.07-1.68-.53-3.11-2.5-3s-2.59,1.55-2.42,3.38c0,.18,0,.37.05.56.39,12.65,1.51,25.29.84,38-.36,6.84-.76,13.7-3.56,20.09-1.89,4.31-6.43,4.82-9.45,1.19a15.58,15.58,0,0,1-3-6.28c-2-7.81-2.15-15.78-1.85-23.77.35-9.64.91-19.29,1.39-28.93.09-1.79-.28-3.29-2.46-3.29s-2.42,1.6-2.47,3.32c-.1,3.47-.16,6.95-.42,10.41-.89,12.07-1.73,24.15-.38,36.24.59,5.25,1.77,10.3,4.78,14.82,3.7,5.56,14.35,7.92,18.43-1.59A35,35,0,0,0,257.2,610C259.43,599.3,259.32,588.51,259.11,577.71ZM458,677.65a15.63,15.63,0,0,1-.55-5.44q-.18-10.56-.27-21.12c0-1.69-.35-3-2.45-3s-2.47,1.36-2.48,3.05c0,.28,0,.56,0,.84.18,13,.39,25.9.55,38.85q.15,13,.19,25.91c0,1.8.54,3.4,2.48,3.44s2.59-1.36,2.55-3.29c-.11-5.25-.09-10.51-.11-15.77,0-3.18,0-6.36,0-10.26a91.86,91.86,0,0,1,7.37,11.68q4.55,7.92,9.12,15.83c.88,1.52,2.23,2.18,3.76,1.25s1.54-2.15.65-3.65c-4.55-7.76-9.11-15.52-13.54-23.34-1.61-2.85-5.29-5.11-4.87-8.3s3-6,4.67-8.86c4.31-7.36,8.68-14.69,13.48-21.74,1-1.4,1.44-2.77-.06-4s-3-.42-4.05,1c-.34.44-.64.92-.94,1.4L461.75,671.4C460.55,673.36,459.37,675.33,458,677.65ZM332.28,606.8c-.21-.9-.43-1.8-.63-2.7-3.54-16.59-6.24-33.36-10.16-49.88-.42-1.78-.89-3.48-3.23-2.84s-2,2.29-1.55,4.09c5.08,22.21,8.62,44.74,13.75,66.95.34,1.5.91,2.5,2.43,2.57,1.73.08,2.51-1.12,2.67-2.67,1.09-10.75,3.15-21.34,5-32q3.09-17.46,6.46-34.86c.35-1.84-.08-3.08-1.77-3.51s-2.77.68-3,2.43c-.1.65-.31,1.28-.44,1.92C338.38,573.08,335.59,589.92,332.28,606.8ZM529,683.49h.56c0,3.85,0,7.7,0,11.55.06,7,.19,14.08.24,21.11,0,1.91.54,3.87,2.63,3.46,5.13-1,10.27-.61,15.41-.76,1.67-.05,3.11-.46,3.11-2.41,0-2.11-1.51-2.56-3.3-2.52-3.47.08-6.94.05-10.4.24-1.94.1-2.6-.47-2.56-2.49.09-5,0-9.95-.15-14.92-.15-6-.19-6,5.67-6.11h.84a2.28,2.28,0,0,0,2.44-2.51,2.25,2.25,0,0,0-2.34-2.34,35.31,35.31,0,0,0-4.48.16c-1.61.14-2.34-.25-2.34-2.1,0-9.67-.19-19.33-.37-29,0-1.55.39-2.16,2-2.12,3.56.08,7.13,0,10.7-.05,1.9,0,4.14.19,4.22-2.46s-2.14-2.56-4.05-2.54c-4.51.05-9,.27-13.52.08-3.92-.15-4.39.14-4.37,3.93C529.06,662.28,529,672.89,529,683.49Zm140-96.25h.47c0,2.82,0,5.64,0,8.45.07,8.08.18,16.15.26,24.22,0,2,.46,4,2.86,3.51,5-1,10.09-.39,15.13-.63,1.81-.09,3.25-.58,3.17-2.67s-1.49-2.37-3.17-2.35c-3.57.05-7.14,0-10.7.13-1.75.07-2.48-.3-2.43-2.27.13-4.88,0-9.77,0-14.65,0-2-.77-4.49.16-5.77,1.14-1.56,3.85-.43,5.86-.64a2.62,2.62,0,0,1,.28,0,2.33,2.33,0,0,0,2.59-2.38c0-1.7-1-2.56-2.67-2.6a39.72,39.72,0,0,0-4.5.1c-1.64.16-2-.5-2-2.06,0-9.39-.07-18.78-.33-28.16-.06-2.49.9-2.93,3-2.9,3.75.06,7.51-.11,11.26-.16,1.52,0,2.59-.62,2.69-2.23.11-1.77-1-2.52-2.61-2.66-.84-.07-1.69,0-2.53,0-4.22.07-8.46.41-12.66.14-3.5-.23-4.1,0-4.11,3.51Q669,571.19,669,587.24Zm-81.6.06h.38v2q.19,15.35.37,30.7c0,1.87.37,3.85,2.58,3.44,5.14-.94,10.29-.43,15.42-.62,1.73-.06,3.1-.61,3.15-2.44.06-2.05-1.4-2.62-3.24-2.59-3.66.07-7.33,0-11,.14-1.63.06-2-.49-2-2.07,0-4.88-.11-9.76-.16-14.64,0-2.05-.76-4.66.21-6s3.84-.44,5.86-.6a2.62,2.62,0,0,1,.28,0c1.53-.08,2.52-.79,2.55-2.39s-1-2.55-2.65-2.59-3,0-4.51.1-2-.23-2-1.81c0-9.57-.16-19.15-.38-28.72,0-2,.65-2.6,2.54-2.58,3.84,0,7.69-.14,11.54-.16,1.63,0,2.85-.54,2.94-2.29.09-1.92-1.2-2.59-2.91-2.63-1.13,0-2.26,0-3.39,0-3.93,0-7.88.33-11.79.06-2.94-.21-3.78.1-3.79,3.07C587.37,565.51,587.39,576.4,587.39,587.3ZM313.22,648.13a14.78,14.78,0,0,0-9.85,4.18,25.14,25.14,0,0,0-6.74,10.55c-4.83,14.07-4.32,28.21-.26,42.33,1.41,4.9,3.59,9.46,7.43,13A11.51,11.51,0,0,0,316,721c1.63-.54,2.64-1.61,2-3.4-.56-1.64-1.87-1.92-3.43-1.36-3.24,1.14-5.84.09-8.08-2.33a18.91,18.91,0,0,1-3.17-4.61c-4.57-9.39-5.39-19.41-5-29.62.28-7.2,1.67-14.14,5.55-20.37,2.25-3.6,5.33-6,9.77-6.23,1.79-.08,3.28-.75,3.13-2.79S314.93,648,313.22,648.13ZM153.49,588c.27,11.16,1.15,22.32.56,33.48-.1,1.89,1,2.93,2.76,2.72,5.06-.58,10.12-.2,15.19-.21,1.78,0,3.28-.32,3.29-2.47S173.8,619,172,619c-3.37,0-6.76-.18-10.13,0-2.1.09-2.79-.4-2.8-2.69-.07-17.17-.31-34.34-.5-51.51,0-3.56-.09-7.13-.09-10.7,0-1.67-.68-2.77-2.42-2.79s-2.48,1.09-2.57,2.71c0,.65,0,1.31,0,2Zm352.41-.26c.45,11.26.88,22.52.48,33.79-.07,2,1,2.89,2.77,2.68,5.07-.61,10.13-.21,15.2-.22,1.83,0,3.29-.42,3.24-2.53S526,619,524.23,619c-3.56,0-7.14-.13-10.7,0-1.61,0-2-.46-2-2-.09-10.89-.31-21.78-.42-32.66-.11-9.67-.14-19.35-.2-29,0-1.84,0-3.88-2.5-4s-2.52,1.91-2.51,3.8C505.92,566,505.9,576.87,505.9,587.76ZM461.46,775.21a42.53,42.53,0,0,0-1.28-12.62c-.44-1.61-.94-3.17-2.95-3.74-3.61-1-5.64-.25-7,3.42-2.41,6.32-2.17,12.9-1.53,19.46A27.9,27.9,0,0,0,451.37,792c.76,1.49,1.86,2.71,3.63,2.76s3.09-1.23,3.86-2.82a21.86,21.86,0,0,0,1.36-3.67A46.34,46.34,0,0,0,461.46,775.21Zm46.7.17A45.18,45.18,0,0,0,507,763.09c-.8-3.42-2.2-4.69-5.32-4.77-2.7-.07-3.91,1.82-4.85,4-1.55,3.62-1.8,7.47-1.87,11.3-.11,6,.28,12,2.72,17.65.76,1.78,1.85,3.46,4,3.48s3.42-1.72,4.22-3.6a22.16,22.16,0,0,0,1.12-3.46A46.87,46.87,0,0,0,508.16,775.38Zm-170.34-.5h.26c0,4.5,0,9,0,13.5,0,1.86-.35,4.18.59,5.44,1.1,1.47,3.48,0,5.3.23a14.25,14.25,0,0,0,2.53,0c.92,0,2.08.16,2.09-1.21s-1.08-1.23-2-1.3c-1.91-.13-4.63.91-5.54-.36s-.38-4-.44-6c0-1,.06-2.07,0-3.1-.13-1.46.19-2.34,1.93-2.14,1,.12,2.43.21,2.39-1.2-.06-1.58-1.57-1.4-2.65-1.21-1.67.3-1.85-.52-1.85-1.87,0-3-.13-6-.18-9-.08-5.65-.07-5.65,5.67-5.71h.84c.89,0,1.82,0,1.88-1.17.09-1.41-1.08-1.31-2-1.31-2.15,0-4.35.39-6.44.07s-2.39.56-2.38,2.25C337.85,765.5,337.82,770.19,337.82,774.88Zm25.31-8.71c.06-1.58.43-3.42,2.42-4a3.88,3.88,0,0,1,5,2l.26.5c.44.89,1.11,1.32,2,.73s.36-1.28.06-2a6.48,6.48,0,0,0-6.78-4c-3,.26-4.37,2.27-5.18,4.84a8.91,8.91,0,0,0,.4,5.51,37.86,37.86,0,0,0,3.84,7.46,27.87,27.87,0,0,1,3.9,10.44c.28,2,.34,4-1.69,4.87-2.22,1-3.72-.3-4.68-2.31-.36-.76-.9-1.25-1.78-.75a1.25,1.25,0,0,0-.42,1.73,6.08,6.08,0,0,0,5.23,4.12,5.21,5.21,0,0,0,5.38-3.28,8.64,8.64,0,0,0,.36-5.25c-.82-5.21-3.46-9.64-6.08-14.08A13.42,13.42,0,0,1,363.13,766.17ZM478.49,795c1,0,2.07,0,3.09,0s2.34.4,2.33-1.22c0-1.36-1.22-1.12-2.13-1.15a29.22,29.22,0,0,0-3.37-.08c-1.9.15-1.93-.55-1.33-2.1a133.62,133.62,0,0,0,5.38-15.92c.93-3.72,2-7.46,1.07-11.35a5.46,5.46,0,0,0-9.16-3c-.77.67-1.76,1.55-1,2.6,1,1.35,1.69,0,2.45-.55,2.53-2,4.83-1.1,5.49,2.08a9.82,9.82,0,0,1,0,3.06c-.85,7.73-3.79,14.83-6.47,22C472.8,794.92,472.79,794.91,478.49,795Zm-46.59,0h3.93c.89,0,1.48-.34,1.43-1.3s-.62-1.07-1.36-1.08a37.12,37.12,0,0,0-3.94-.08c-1.94.17-2.21-.49-1.53-2.2A143.67,143.67,0,0,0,435.69,775a29.77,29.77,0,0,0,1.37-10.8c-.21-2.11-.89-4.06-3.12-4.95a6,6,0,0,0-6.09.87c-.85.63-2.08,1.53-1.12,2.74s1.71-.08,2.47-.67c2.52-1.94,4.93-1,5.49,2.2a12.61,12.61,0,0,1-.14,4.2c-1.11,7.27-3.78,14.07-6.39,20.88C426.06,794.89,426.07,794.9,431.9,795Zm-44.73-17.27h.38c0,4.79,0,9.58,0,14.37,0,1.06-.38,2.65,1.25,2.62S390,793.07,390,792q-.11-13.38-.29-26.76c-.06-4.15-.09-4.15,4.19-4.23a13,13,0,0,0,1.4,0,1.12,1.12,0,0,0,1.09-1.07,1,1,0,0,0-1-1.18q-7-.15-14.07-.2c-.69,0-1.3.38-1.19,1.24a1.24,1.24,0,0,0,1.37,1.13c1.12,0,2.26.08,3.38,0,1.57-.11,2.35.26,2.29,2.14C387.08,768,387.17,772.84,387.17,777.72Z" transform="translate(-0.51 1.54)"/><path class="cls-2" d="M592.78,403.44c-1.44,3.77-4.48,6.41-7,9.38-4.27,5.08-8.75,10-13.5,14.68a240.57,240.57,0,0,1-47,35.9A231.8,231.8,0,0,1,459.87,489a259.37,259.37,0,0,1-27.08,4.26c-12.18,1.46-24.37,1.23-36.53.86a193.25,193.25,0,0,1-22.52-2.45,230.63,230.63,0,0,1-44.19-11.4,217.94,217.94,0,0,1-42.62-20.84A246.21,246.21,0,0,1,252,432.58,234.45,234.45,0,0,1,220,395.85a218.89,218.89,0,0,1-18.5-31.16,231.65,231.65,0,0,1-19.71-60.12,234.81,234.81,0,0,1-3.09-25.28,250.3,250.3,0,0,1-.28-29,220.05,220.05,0,0,1,5.13-37.4,233.91,233.91,0,0,1,23-61.09A228.6,228.6,0,0,1,229,118.26a221.67,221.67,0,0,1,16.67-18.61A229.82,229.82,0,0,1,273.6,75.74a236.34,236.34,0,0,1,37.25-22,227.51,227.51,0,0,1,55.4-18,241.34,241.34,0,0,1,29.16-3.57c8.08-.52,16.14-.56,24.18-.3a232.27,232.27,0,0,1,24.49,2.53,223.75,223.75,0,0,1,43.46,10.88A227.78,227.78,0,0,1,532.25,67a231.54,231.54,0,0,1,48.37,40.48,224.58,224.58,0,0,1,30.91,43A227.45,227.45,0,0,1,628.65,189a250.66,250.66,0,0,1,8.82,35.33c3,16.51,3.65,33.11,3.13,49.78a202.56,202.56,0,0,1-2.38,23.39A266.64,266.64,0,0,1,627.16,342c-4.86-.47-9.71-.9-14.57-1.41-18.23-1.89-36.16-.57-53.7,5a217.72,217.72,0,0,0-29.06,12c-1.51.73-2.16.74-2.69-1.11A64.34,64.34,0,0,1,525.06,346c-1.2-10.86.45-21.56,2-32.23,2.06-13.9,3.07-27.79,1.24-41.79-3.3-25.21-13.35-47.52-29.16-67.26a242.68,242.68,0,0,0-59.53-52.88c-4.6-2.94-9.09-6-12.39-10.51-1.85-2.51-2.51-5.12-1.34-8.16,1.44-3.76,2.77-7.57,4.08-11.38s2.56-7.68,2.5-11.77c-.08-5.35-3.63-8.21-8.91-7.51a19.47,19.47,0,0,0-10.67,5.28,46,46,0,0,1-13.29,8.32c-7.92,3.34-16.34,4.81-24.7,6.48-10.46,2.09-19.54-.29-26.92-8.24a17.24,17.24,0,0,0-1.69-1.5c-8.67-7.19-20.14-3.54-23.22,7.38-1.16,4.08-.86,8.18-.15,12.28,1.07,6.12,3.27,11.92,5.08,17.83,2.44,8,1.87,15.53-2.82,22.63a47,47,0,0,0-3.21,5.92c-3.65,7.85-2.34,14.73,3.9,20.75a43.08,43.08,0,0,0,12.7,8.19c11.9,5.27,24.14,9.7,35.78,15.64,11.13,5.67,22.47,9.49,35.59,4.89,7.25-2.54,12.08-6.42,15.19-12.92,3.54-7.41,4.12-15.34,3.37-23.4-.81-8.69-5.42-15.24-12-20.56-2.61-2.12-5.69-3.27-8.86-1.42s-4.25,5.19-4.06,8.74a68,68,0,0,0,2.55,15.52c1.76,6,3.07,12.19,6.48,17.59l-.55.54c-2.94-1.73-5.91-2.05-8.58.35-3.79,3.41-3.58,7.49-1.28,11.76a26.3,26.3,0,0,1-15.13-1.91c-16.68-7.14-33.28-14.5-49.85-21.91a25.72,25.72,0,0,1-8-5.74c-3.72-3.85-4.74-8.22-2.39-13.13,1.34-2.78,2.88-5.47,4.41-8.16a28.66,28.66,0,0,0,3.3-19.82c-1-5.94-3.34-11.51-4.89-17.29-1.21-4.47-2.22-9-1.45-13.61a9.88,9.88,0,0,1,6.42-7.9c3.35-1.41,5.77.34,8.13,2.3.94.78,1.81,1.64,2.7,2.48,6.34,6,13.72,9.27,22.61,9,5.5-.14,10.78-1.34,16.11-2.41,12.6-2.52,24.4-6.72,34-15.69a10.06,10.06,0,0,1,4.16-2.29c4-1.12,4.94-.24,4.19,4-1.08,6.13-3.44,11.87-5.69,17.6-2.55,6.51-1,11.87,3.49,16.82,4,4.45,9,7.67,13.93,10.89A236.9,236.9,0,0,1,494,207.45c19.69,24.34,30.12,52.07,29.62,83.59-.19,12-2.77,23.85-4,35.8-1.08,10.91-1.23,21.75,2.42,32.28.65,1.88-.32,2.22-1.55,2.81-9.4,4.44-18.83,8.82-28.48,12.68-6,2.41-12.13,4.61-18.37,7,.71-8.84-2.37-13.36-10.35-15.08a31.39,31.39,0,0,0-22.3,3.53c-5.26,2.89-6.49,6.57-4.67,12.3l-.54.38a12.22,12.22,0,0,1-3.2-5.19,27.66,27.66,0,0,1,.14-20.61c1.76-4.33,3.76-8.57,5.59-12.87a24.36,24.36,0,0,0,2.18-11.78c-.59-7-6-10.91-12.85-9.19a20,20,0,0,0-8.3,4.56,60,60,0,0,0-10.65,13.06,112.08,112.08,0,0,1-23.82,26.1c-10.71,8.73-22.71,14.54-36.71,15.47-1.75.11-4,.54-5-.95s.59-3.3,1.48-4.76a37.23,37.23,0,0,1,3-4.09,126.36,126.36,0,0,1,13.88-14,123.62,123.62,0,0,0,17.06-17.92c14.54-19.52,8.69-42.23-2.6-55-9.17-10.4-22.37-11-32.7-1.79-6.91,6.2-11.56,14-15.54,22.25-4.76,9.83-9.21,19.82-13.93,30-1.55-1.88-2.88-3.55-4.29-5.16-11.73-13.49-21.4-28.24-27.76-45-5.53-14.6-8.32-29.57-6.21-45.23,2.58-19.11,12.23-34.38,25.68-47.59a95.24,95.24,0,0,1,11.61-9.8c1.55-1.1,1.95-2.63.93-4.17s-2.65-1.55-4.2-.52c-.55.36-1.07.77-1.59,1.16a115.62,115.62,0,0,0-18.17,17.21C273.49,216,266.71,238,270,263c2.24,16.92,8.63,32.31,17.11,47,6.29,10.88,14.51,20.29,22.43,29.94,1.19,1.45,1.57,2.63.76,4.48a52.05,52.05,0,0,0-3.21,10.17c-1.13,5.38-1.78,10.78.25,16.09,1.54,4.06,4.41,6.79,8.82,7.37s7.42-1.61,9.84-4.87a13.59,13.59,0,0,0,2.56-10.1c-1-7.66-5.12-13.81-9.47-19.83a3.72,3.72,0,0,1-.4-4.31c4.4-9.41,8.58-18.93,13.09-28.3,3.83-7.95,8.1-15.67,14.58-21.9,8.31-8,17.94-7.69,25.58.94,8.39,9.47,14.89,28.51,3.49,45.43-4.83,7.16-11,13.07-17.31,18.82-6.68,6-13.41,12.09-18.37,19.74-2.13,3.29-4,6.9-1.67,10.76s6.52,3.74,10.36,3.53a62.43,62.43,0,0,0,29-9c14.93-8.94,26.77-21.07,36.39-35.48,3-4.54,6-9.13,10.51-12.41,2.48-1.82,5.42-3.95,8.47-2s2.35,5.62,1.62,8.75c-1.13,4.88-3.49,9.28-5.61,13.77a37.84,37.84,0,0,0-3.59,19.12c1.19,17.58,15.8,27.76,32.7,22.79,5.05-1.49,9.57-4.15,14.61-5.71,17.39-5.39,34-12.8,50.39-20.65,1.57-.75,2.31-.76,3.21.9a49.24,49.24,0,0,0,12,14.06c9.32,7.79,20.25,12.34,31.74,15.79C577.43,400.09,585.15,401.56,592.78,403.44Z" transform="translate(-0.51 1.54)"/><path class="cls-3" d="M592.78,403.44c-7.63-1.88-15.35-3.35-22.89-5.62-11.49-3.45-22.42-8-31.74-15.79a49.24,49.24,0,0,1-12-14.06c-.9-1.66-1.64-1.65-3.21-.9-16.4,7.85-33,15.26-50.39,20.65-5,1.56-9.56,4.22-14.61,5.71-16.9,5-31.51-5.21-32.7-22.79a37.84,37.84,0,0,1,3.59-19.12c2.12-4.49,4.48-8.89,5.61-13.77.73-3.13,1.57-6.7-1.62-8.75s-6,.17-8.47,2c-4.48,3.28-7.48,7.87-10.51,12.41-9.62,14.41-21.46,26.54-36.39,35.48a62.43,62.43,0,0,1-29,9c-3.84.21-8,.35-10.36-3.53s-.46-7.47,1.67-10.76c5-7.65,11.69-13.69,18.37-19.74,6.35-5.75,12.48-11.66,17.31-18.82,11.4-16.92,4.9-36-3.49-45.43-7.64-8.63-17.27-8.92-25.58-.94-6.48,6.23-10.75,13.95-14.58,21.9-4.51,9.37-8.69,18.89-13.09,28.3a3.72,3.72,0,0,0,.4,4.31c4.35,6,8.5,12.17,9.47,19.83A13.59,13.59,0,0,1,326,373.1c-2.42,3.26-5.57,5.43-9.84,4.87s-7.28-3.31-8.82-7.37c-2-5.31-1.38-10.71-.25-16.09a52.05,52.05,0,0,1,3.21-10.17c.81-1.85.43-3-.76-4.48-7.92-9.65-16.14-19.06-22.43-29.94-8.48-14.65-14.87-30-17.11-47-3.31-25,3.47-46.95,19.8-66.06A115.62,115.62,0,0,1,308,179.69c.52-.39,1-.8,1.59-1.16,1.55-1,3.13-1.09,4.2.52s.62,3.07-.93,4.17a95.24,95.24,0,0,0-11.61,9.8c-13.45,13.21-23.1,28.48-25.68,47.59-2.11,15.66.68,30.63,6.21,45.23,6.36,16.79,16,31.54,27.76,45,1.41,1.61,2.74,3.28,4.29,5.16,4.72-10.22,9.17-20.21,13.93-30,4-8.22,8.63-16.05,15.54-22.25,10.33-9.26,23.53-8.61,32.7,1.79,11.29,12.8,17.14,35.51,2.6,55a123.62,123.62,0,0,1-17.06,17.92,126.36,126.36,0,0,0-13.88,14,37.23,37.23,0,0,0-3,4.09c-.89,1.46-2.6,3.13-1.48,4.76s3.29,1.06,5,.95c14-.93,26-6.74,36.71-15.47a112.08,112.08,0,0,0,23.82-26.1,60,60,0,0,1,10.65-13.06,20,20,0,0,1,8.3-4.56c6.82-1.72,12.26,2.19,12.85,9.19A24.36,24.36,0,0,1,438.37,344c-1.83,4.3-3.83,8.54-5.59,12.87a27.66,27.66,0,0,0-.14,20.61,12.22,12.22,0,0,0,3.2,5.19l.45.92c.42-.41.22-.86.09-1.3-1.82-5.73-.59-9.41,4.67-12.3a31.39,31.39,0,0,1,22.3-3.53c8,1.72,11.06,6.24,10.35,15.08,6.24-2.36,12.35-4.56,18.37-7,9.65-3.86,19.08-8.24,28.48-12.68,1.23-.59,2.2-.93,1.55-2.81-3.65-10.53-3.5-21.37-2.42-32.28,1.19-11.95,3.77-23.76,4-35.8.5-31.52-9.93-59.25-29.62-83.59a236.9,236.9,0,0,0-55.7-49.64c-5-3.22-9.92-6.44-13.93-10.89-4.46-4.95-6-10.31-3.49-16.82,2.25-5.73,4.61-11.47,5.69-17.6.75-4.19-.17-5.07-4.19-4a10.06,10.06,0,0,0-4.16,2.29c-9.61,9-21.41,13.17-34,15.69-5.33,1.07-10.61,2.27-16.11,2.41-8.89.22-16.27-3-22.61-9-.89-.84-1.76-1.7-2.7-2.48-2.36-2-4.78-3.71-8.13-2.3a9.88,9.88,0,0,0-6.42,7.9c-.77,4.66.24,9.14,1.45,13.61,1.55,5.78,3.85,11.35,4.89,17.29a28.66,28.66,0,0,1-3.3,19.82c-1.53,2.69-3.07,5.38-4.41,8.16-2.35,4.91-1.33,9.28,2.39,13.13a25.72,25.72,0,0,0,8,5.74c16.57,7.41,33.17,14.77,49.85,21.91a26.3,26.3,0,0,0,15.13,1.91c-2.3-4.27-2.51-8.35,1.28-11.76,2.67-2.4,5.64-2.08,8.58-.35a12.6,12.6,0,0,1,3.78,6.34c10-9.51,9.42-34.19-.76-40.4.16,3.43-.44,6.43-4.15,7.73-1.31.46-.48,1.47-.34,2.14a94.27,94.27,0,0,0,6,19.28c.6,1.36,1,2.67-.1,3.91s-2.49,1.11-3.87.46c-3.41-5.4-4.72-11.59-6.48-17.59a68,68,0,0,1-2.55-15.52c-.19-3.55.84-6.85,4.06-8.74s6.25-.7,8.86,1.42c6.57,5.32,11.18,11.87,12,20.56.75,8.06.17,16-3.37,23.4C422,222,417.2,225.84,410,228.38c-13.12,4.6-24.46.78-35.59-4.89-11.64-5.94-23.88-10.37-35.78-15.64a43.08,43.08,0,0,1-12.7-8.19c-6.24-6-7.55-12.9-3.9-20.75a47,47,0,0,1,3.21-5.92c4.69-7.1,5.26-14.64,2.82-22.63-1.81-5.91-4-11.71-5.08-17.83-.71-4.1-1-8.2.15-12.28,3.08-10.92,14.55-14.57,23.22-7.38a17.24,17.24,0,0,1,1.69,1.5c7.38,7.95,16.46,10.33,26.92,8.24,8.36-1.67,16.78-3.14,24.7-6.48a46,46,0,0,0,13.29-8.32,19.47,19.47,0,0,1,10.67-5.28c5.28-.7,8.83,2.16,8.91,7.51.06,4.09-1.19,7.95-2.5,11.77s-2.64,7.62-4.08,11.38c-1.17,3-.51,5.65,1.34,8.16,3.3,4.49,7.79,7.57,12.39,10.51a242.68,242.68,0,0,1,59.53,52.88C515,224.48,525,246.79,528.32,272c1.83,14,.82,27.89-1.24,41.79-1.57,10.67-3.22,21.37-2,32.23a64.34,64.34,0,0,0,2.08,10.46c.53,1.85,1.18,1.84,2.69,1.11a217.72,217.72,0,0,1,29.06-12c17.54-5.55,35.47-6.87,53.7-5,4.86.51,9.71.94,14.57,1.41,7.43,1.46,15,2.44,22.29,4.43,7.8,2.13,15.45,4.61,22.22,9.18,5.32,3.6,9.3,8.18,9.93,14.93a20.81,20.81,0,0,1-2.91,12.1c-6.05,11-15.89,16.92-27.56,20.2-13.85,3.89-28,3.94-42.16,2.56C603.56,404.89,598.18,404.11,592.78,403.44Zm29.16-2.84c10.26-.12,18.39-.72,26.33-2.86,10.36-2.78,19.48-7.47,25.07-17.2,4.67-8.14,3.16-14.56-4.56-19.94-5.54-3.86-11.81-6.11-18.24-7.92-14.25-4-28.88-5.68-43.59-6.82a124.75,124.75,0,0,0-31.41,1.49C560.42,350,546.47,356,532.7,362.46c-2,1-2.4,1.67-1.14,3.63,6,9.34,14.33,15.93,24.27,20.35C577.5,396.08,600.47,399.78,621.94,400.6Zm-166.72-15a43.26,43.26,0,0,0,7.52-1.07c2.89-.7,5.54-3.87,5.6-6.64.06-2.43-1.61-4.48-4.84-5.47-7-2.13-13.55-.71-19.77,2.61-3.17,1.69-3.34,3.51-1.05,6.37C446,385.52,450.58,385.63,455.22,385.64Zm-140-38.11c-2.34,6-3.89,11.72-3.36,17.82.35,4,2.84,7.21,5.54,7s5.52-3.79,5.65-7.47a7.16,7.16,0,0,0-.08-1.39C322,357.59,318.86,352.68,315.23,347.53ZM408.3,222c.83-.56,1.73-1.14,1.74-2.29a2.73,2.73,0,0,0-2-2.76c-1.24-.27-1.69,1.08-1.75,2.08C406.19,220.36,407.06,221.27,408.3,222Z" transform="translate(-0.51 1.54)"/><path class="cls-4" d="M364.08,703.59c-1.61.18-3.23-.1-3.35-2.23s1.43-2.9,3.17-2.71c3.37.37,4.3-1.28,4.93-4.3,2.74-13.21,6.52-26.2,8.74-39.53.22-1.29.5-2.58.64-3.88.17-1.7.83-3.06,2.69-2.93s3.58.43,4,3c2.13,14.19,5,28.26,7.65,42.37.49,2.57,1.06,4.1,4.09,3.64,1.72-.26,3.32.46,3.22,2.57-.09,1.9-1.49,2.48-3.2,2.28-2.18-.26-2.47.56-1.94,2.55,1.15,4.25,2,8.59,3.09,12.84.48,1.84,0,3.07-1.67,3.56-1.82.54-2.74-.59-3.13-2.32-1.09-4.75-2.27-9.47-3.33-14.23-.36-1.58-.85-2.3-2.78-2.1-4.28.45-8.61.55-12.92.68-1.45,0-2.05.42-2.37,2-.84,4.13-2,8.19-3,12.28-.42,1.71-1.24,3.12-3.27,2.61s-2-2.16-1.55-3.87c.85-3.26,1.69-6.53,2.47-9.81C366.83,703.55,366.8,703.54,364.08,703.59Zm17.51-41.23c-.11.12-.29.25-.33.4q-3.94,16.83-7.9,33.66c-.34,1.44.37,1.52,1.47,1.45,3.65-.21,7.3-.53,11-.51,2,0,2.51-.42,2.09-2.5C385.69,684,383.67,673.19,381.59,662.36Z" transform="translate(-0.51 1.54)"/><path class="cls-4" d="M411.05,609.89c.3-5,2.37-9.84,4.81-14.51,1.48-2.82,4.12-5.51,4.32-8.39s-2.17-5.65-3.33-8.51a28,28,0,0,1-2.41-9.77c-.15-5.14,1.77-8.1,6-9.25,4.89-1.33,9.49.56,11.71,4.89a13.86,13.86,0,0,1,.76,11.19c-1.22,3.61-3.41,6.66-5.42,9.83-.75,1.19-1.07,2.09-.22,3.5,3.22,5.39,6.3,10.86,9.37,16.34.81,1.44,1.48,1.63,2.67.39a15.71,15.71,0,0,1,2.88-2.23,2.41,2.41,0,0,1,3.51.45c1,1.28.58,2.49-.55,3.46-1.57,1.34-4.12,2.38-4.35,4.17s1.52,3.66,2.31,5.54a8.82,8.82,0,0,1,.73,2.69,2.22,2.22,0,0,1-1.87,2.45,2.19,2.19,0,0,1-2.61-1.16c-1-1.73-1-4.75-2.89-5-1.34-.17-2.92,2.33-4.57,3.37-5.23,3.29-10.69,3.24-16.05.43C412.09,617.81,411,614.24,411.05,609.89Zm12.26-17.73c-3.28,5.81-6.54,11.2-7.2,17.64-.39,3.74.93,5.63,4.53,6.61a11.47,11.47,0,0,0,5.58.13,11.85,11.85,0,0,0,7.23-5.47c1.09-1.75-1.5-3.46-2.24-5.29a25.67,25.67,0,0,0-1.67-2.91Zm.43-10.32c1.86-2.81,3.67-5.31,4.56-8.34a8.69,8.69,0,0,0-.84-7.3c-1.44-2.37-3.68-2.4-5.95-1.83s-2.28,2.53-2.13,4.34C419.77,573.36,421.83,577.46,423.74,581.84Z" transform="translate(-0.51 1.54)"/><path class="cls-4" d="M259.11,577.71c.21,10.8.32,21.59-1.91,32.24a35,35,0,0,1-2.17,6.66c-4.08,9.51-14.73,7.15-18.43,1.59-3-4.52-4.19-9.57-4.78-14.82-1.35-12.09-.51-24.17.38-36.24.26-3.46.32-6.94.42-10.41,0-1.72.27-3.32,2.47-3.32s2.55,1.5,2.46,3.29c-.48,9.64-1,19.29-1.39,28.93-.3,8-.11,16,1.85,23.77a15.58,15.58,0,0,0,3,6.28c3,3.63,7.56,3.12,9.45-1.19,2.8-6.39,3.2-13.25,3.56-20.09.67-12.68-.45-25.32-.84-38,0-.19,0-.38-.05-.56-.17-1.83.37-3.29,2.42-3.38s2.43,1.34,2.5,3Q258.59,566.61,259.11,577.71Z" transform="translate(-0.51 1.54)"/><path class="cls-4" d="M458,677.65c1.4-2.32,2.58-4.29,3.78-6.25l11.73-19.19c.3-.48.6-1,.94-1.4,1.09-1.41,2.42-2.3,4.05-1s1,2.56.06,4c-4.8,7.05-9.17,14.38-13.48,21.74-1.7,2.91-4.26,5.75-4.67,8.86s3.26,5.45,4.87,8.3c4.43,7.82,9,15.58,13.54,23.34.89,1.5.74,2.82-.65,3.65s-2.88.27-3.76-1.25q-4.58-7.9-9.12-15.83a91.86,91.86,0,0,0-7.37-11.68c0,3.9,0,7.08,0,10.26,0,5.26,0,10.52.11,15.77,0,1.93-.64,3.33-2.55,3.29s-2.48-1.64-2.48-3.44q-.06-12.94-.19-25.91c-.16-13-.37-25.9-.55-38.85,0-.28,0-.56,0-.84,0-1.69.5-3,2.48-3.05s2.43,1.26,2.45,3q.11,10.56.27,21.12A15.63,15.63,0,0,0,458,677.65Z" transform="translate(-0.51 1.54)"/><path class="cls-4" d="M332.28,606.8c3.31-16.88,6.1-33.72,9.51-50.45.13-.64.34-1.27.44-1.92.28-1.75,1.21-2.9,3-2.43s2.12,1.67,1.77,3.51q-3.35,17.4-6.46,34.86c-1.88,10.61-3.94,21.2-5,32-.16,1.55-.94,2.75-2.67,2.67-1.52-.07-2.09-1.07-2.43-2.57-5.13-22.21-8.67-44.74-13.75-66.95-.42-1.8-.68-3.48,1.55-4.09s2.81,1.06,3.23,2.84c3.92,16.52,6.62,33.29,10.16,49.88C331.85,605,332.07,605.9,332.28,606.8Z" transform="translate(-0.51 1.54)"/><path class="cls-4" d="M529,683.49c0-10.6,0-21.21,0-31.81,0-3.79.45-4.08,4.37-3.93,4.5.19,9,0,13.52-.08,1.91,0,4.14-.19,4.05,2.54s-2.32,2.44-4.22,2.46c-3.57,0-7.14.13-10.7.05-1.65,0-2.07.57-2,2.12.18,9.67.33,19.33.37,29,0,1.85.73,2.24,2.34,2.1a35.31,35.31,0,0,1,4.48-.16,2.25,2.25,0,0,1,2.34,2.34,2.28,2.28,0,0,1-2.44,2.51h-.84c-5.86.16-5.82.15-5.67,6.11.12,5,.24,10,.15,14.92,0,2,.62,2.59,2.56,2.49,3.46-.19,6.93-.16,10.4-.24,1.79,0,3.3.41,3.3,2.52,0,1.95-1.44,2.36-3.11,2.41-5.14.15-10.28-.26-15.41.76-2.09.41-2.61-1.55-2.63-3.46-.05-7-.18-14.07-.24-21.11,0-3.85,0-7.7,0-11.55Z" transform="translate(-0.51 1.54)"/><path class="cls-4" d="M669,587.24q0-16.05,0-32.1c0-3.55.61-3.74,4.11-3.51,4.2.27,8.44-.07,12.66-.14.84,0,1.69,0,2.53,0,1.6.14,2.72.89,2.61,2.66-.1,1.61-1.17,2.21-2.69,2.23-3.75.05-7.51.22-11.26.16-2.13,0-3.09.41-3,2.9.26,9.38.3,18.77.33,28.16,0,1.56.38,2.22,2,2.06a39.72,39.72,0,0,1,4.5-.1c1.66,0,2.72.9,2.67,2.6a2.33,2.33,0,0,1-2.59,2.38,2.62,2.62,0,0,0-.28,0c-2,.21-4.72-.92-5.86.64-.93,1.28-.17,3.8-.16,5.77,0,4.88.17,9.77,0,14.65-.05,2,.68,2.34,2.43,2.27,3.56-.14,7.13-.08,10.7-.13,1.68,0,3.1.41,3.17,2.35s-1.36,2.58-3.17,2.67c-5,.24-10.09-.38-15.13.63-2.4.48-2.85-1.53-2.86-3.51-.08-8.07-.19-16.14-.26-24.22,0-2.81,0-5.63,0-8.45Z" transform="translate(-0.51 1.54)"/><path class="cls-4" d="M587.39,587.3c0-10.9,0-21.79,0-32.68,0-3,.85-3.28,3.79-3.07,3.91.27,7.86,0,11.79-.06,1.13,0,2.26,0,3.39,0,1.71,0,3,.71,2.91,2.63-.09,1.75-1.31,2.28-2.94,2.29-3.85,0-7.7.19-11.54.16-1.89,0-2.59.56-2.54,2.58.22,9.57.33,19.15.38,28.72,0,1.58.59,1.91,2,1.81s3-.13,4.51-.1,2.68.84,2.65,2.59-1,2.31-2.55,2.39a2.62,2.62,0,0,0-.28,0c-2,.16-4.79-.88-5.86.6s-.23,4-.21,6c0,4.88.19,9.76.16,14.64,0,1.58.4,2.13,2,2.07,3.66-.14,7.33-.07,11-.14,1.84,0,3.3.54,3.24,2.59,0,1.83-1.42,2.38-3.15,2.44-5.13.19-10.28-.32-15.42.62-2.21.41-2.57-1.57-2.58-3.44q-.15-15.36-.37-30.7v-2Z" transform="translate(-0.51 1.54)"/><path class="cls-4" d="M313.22,648.13c1.71-.13,3.44-.06,3.6,2.11s-1.34,2.71-3.13,2.79c-4.44.22-7.52,2.63-9.77,6.23-3.88,6.23-5.27,13.17-5.55,20.37-.4,10.21.42,20.23,5,29.62a18.91,18.91,0,0,0,3.17,4.61c2.24,2.42,4.84,3.47,8.08,2.33,1.56-.56,2.87-.28,3.43,1.36.62,1.79-.39,2.86-2,3.4a11.51,11.51,0,0,1-12.22-2.73c-3.84-3.57-6-8.13-7.43-13-4.06-14.12-4.57-28.26.26-42.33a25.14,25.14,0,0,1,6.74-10.55A14.78,14.78,0,0,1,313.22,648.13Z" transform="translate(-0.51 1.54)"/><path class="cls-4" d="M153.49,588V555.94c0-.66,0-1.32,0-2,.09-1.62.85-2.73,2.57-2.71s2.42,1.12,2.42,2.79c0,3.57.05,7.14.09,10.7.19,17.17.43,34.34.5,51.51,0,2.29.7,2.78,2.8,2.69,3.37-.14,6.76,0,10.13,0,1.78,0,3.28.4,3.27,2.55S173.78,624,172,624c-5.07,0-10.13-.37-15.19.21-1.76.21-2.86-.83-2.76-2.72C154.64,610.34,153.76,599.18,153.49,588Z" transform="translate(-0.51 1.54)"/><path class="cls-4" d="M505.9,587.76c0-10.89,0-21.78,0-32.68,0-1.89,0-3.86,2.51-3.8s2.48,2.11,2.5,4c.06,9.67.09,19.35.2,29,.11,10.88.33,21.77.42,32.66,0,1.57.4,2.08,2,2,3.56-.09,7.14,0,10.7,0,1.8,0,3.31.42,3.36,2.5s-1.41,2.53-3.24,2.53c-5.07,0-10.13-.39-15.2.22-1.73.21-2.84-.72-2.77-2.68C506.78,610.28,506.35,599,505.9,587.76Z" transform="translate(-0.51 1.54)"/><path class="cls-5" d="M461.46,775.21a46.34,46.34,0,0,1-1.24,13.06,21.86,21.86,0,0,1-1.36,3.67c-.77,1.59-1.95,2.87-3.86,2.82s-2.87-1.27-3.63-2.76a27.9,27.9,0,0,1-2.71-10.27c-.64-6.56-.88-13.14,1.53-19.46,1.4-3.67,3.43-4.46,7-3.42,2,.57,2.51,2.13,2.95,3.74A42.53,42.53,0,0,1,461.46,775.21Zm-2.4,0a49.79,49.79,0,0,0-.7-10c-.26-2-.93-4.13-3.3-4.29s-2.75,2.27-3.19,4a45.24,45.24,0,0,0-.34,19.55,20.1,20.1,0,0,0,1.87,6.15c.4.73.68,1.66,1.74,1.59s1.39-.89,1.72-1.67a21.16,21.16,0,0,0,1.11-3.16A46.71,46.71,0,0,0,459.06,775.24Z" transform="translate(-0.51 1.54)"/><path class="cls-5" d="M508.16,775.38A46.87,46.87,0,0,1,507,787.69a22.16,22.16,0,0,1-1.12,3.46c-.8,1.88-1.93,3.62-4.22,3.6s-3.25-1.7-4-3.48c-2.44-5.64-2.83-11.63-2.72-17.65.07-3.83.32-7.68,1.87-11.3.94-2.18,2.15-4.07,4.85-4,3.12.08,4.52,1.35,5.32,4.77A45.18,45.18,0,0,1,508.16,775.38Zm-2.35.16a64.35,64.35,0,0,0-.82-10.37c-.29-2.1-1-4.14-3.31-4.25s-2.64,2.31-3.14,4c-1.5,5.14-1.39,10.41-.89,15.65.34,3.53.82,7.09,2.57,10.3,1,1.82,2.07,1.74,3.07.05a11,11,0,0,0,1.07-2.58C505.58,784.17,505.7,779.86,505.81,775.54Z" transform="translate(-0.51 1.54)"/><path class="cls-5" d="M337.82,774.88c0-4.69,0-9.38,0-14.08,0-1.69.22-2.58,2.38-2.25s4.29-.06,6.44-.07c.9,0,2.07-.1,2,1.31-.06,1.13-1,1.19-1.88,1.17h-.84c-5.74.06-5.75.06-5.67,5.71.05,3,.19,6,.18,9,0,1.35.18,2.17,1.85,1.87,1.08-.19,2.59-.37,2.65,1.21,0,1.41-1.39,1.32-2.39,1.2-1.74-.2-2.06.68-1.93,2.14.08,1,0,2.07,0,3.1.06,2.05-.56,4.61.44,6s3.63.23,5.54.36c1,.07,2.06,0,2,1.3s-1.17,1.19-2.09,1.21a14.25,14.25,0,0,1-2.53,0c-1.82-.27-4.2,1.24-5.3-.23-.94-1.26-.56-3.58-.59-5.44-.06-4.5,0-9,0-13.5Z" transform="translate(-0.51 1.54)"/><path class="cls-5" d="M363.13,766.17a13.42,13.42,0,0,0,2.25,6.56c2.62,4.44,5.26,8.87,6.08,14.08a8.64,8.64,0,0,1-.36,5.25,5.21,5.21,0,0,1-5.38,3.28,6.08,6.08,0,0,1-5.23-4.12,1.25,1.25,0,0,1,.42-1.73c.88-.5,1.42,0,1.78.75,1,2,2.46,3.31,4.68,2.31,2-.91,2-2.91,1.69-4.87a27.87,27.87,0,0,0-3.9-10.44,37.86,37.86,0,0,1-3.84-7.46,8.91,8.91,0,0,1-.4-5.51c.81-2.57,2.21-4.58,5.18-4.84a6.48,6.48,0,0,1,6.78,4c.3.69.82,1.4-.06,2s-1.59.16-2-.73l-.26-.5a3.88,3.88,0,0,0-5-2C363.56,762.75,363.19,764.59,363.13,766.17Z" transform="translate(-0.51 1.54)"/><path class="cls-5" d="M478.49,795c-5.7-.08-5.69-.07-3.62-5.64,2.68-7.18,5.62-14.28,6.47-22a9.82,9.82,0,0,0,0-3.06c-.66-3.18-3-4.09-5.49-2.08-.76.6-1.48,1.9-2.45.55-.76-1,.23-1.93,1-2.6a5.46,5.46,0,0,1,9.16,3c.89,3.89-.14,7.63-1.07,11.35a133.62,133.62,0,0,1-5.38,15.92c-.6,1.55-.57,2.25,1.33,2.1a29.22,29.22,0,0,1,3.37.08c.91,0,2.12-.21,2.13,1.15,0,1.62-1.38,1.17-2.33,1.22S479.52,795,478.49,795Z" transform="translate(-0.51 1.54)"/><path class="cls-5" d="M431.9,795c-5.83-.09-5.84-.1-3.74-5.57,2.61-6.81,5.28-13.61,6.39-20.88a12.61,12.61,0,0,0,.14-4.2c-.56-3.17-3-4.14-5.49-2.2-.76.59-1.45,2-2.47.67s.27-2.11,1.12-2.74a6,6,0,0,1,6.09-.87c2.23.89,2.91,2.84,3.12,4.95a29.77,29.77,0,0,1-1.37,10.8,143.67,143.67,0,0,1-5.26,15.38c-.68,1.71-.41,2.37,1.53,2.2a37.12,37.12,0,0,1,3.94.08c.74,0,1.31.27,1.36,1.08s-.54,1.31-1.43,1.3Z" transform="translate(-0.51 1.54)"/><path class="cls-4" d="M387.17,777.72c0-4.88-.09-9.77.05-14.64.06-1.88-.72-2.25-2.29-2.14-1.12.07-2.26,0-3.38,0a1.24,1.24,0,0,1-1.37-1.13c-.11-.86.5-1.24,1.19-1.24q7,0,14.07.2a1,1,0,0,1,1,1.18,1.12,1.12,0,0,1-1.09,1.07,13,13,0,0,1-1.4,0c-4.28.08-4.25.08-4.19,4.23q.19,13.38.29,26.76c0,1,.43,2.65-1.19,2.68s-1.25-1.56-1.25-2.62c0-4.79,0-9.58,0-14.37Z" transform="translate(-0.51 1.54)"/><path class="cls-6" d="M621.94,400.6c-21.47-.82-44.44-4.52-66.11-14.16-9.94-4.42-18.3-11-24.27-20.35-1.26-2-.9-2.67,1.14-3.63,13.77-6.5,27.72-12.45,42.84-15.11A124.75,124.75,0,0,1,607,345.86c14.71,1.14,29.34,2.8,43.59,6.82,6.43,1.81,12.7,4.06,18.24,7.92,7.72,5.38,9.23,11.8,4.56,19.94-5.59,9.73-14.71,14.42-25.07,17.2C640.33,399.88,632.2,400.48,621.94,400.6Z" transform="translate(-0.51 1.54)"/><path class="cls-2" d="M455.22,385.64c-4.64,0-9.27-.12-12.54-4.2-2.29-2.86-2.12-4.68,1.05-6.37,6.22-3.32,12.81-4.74,19.77-2.61,3.23,1,4.9,3,4.84,5.47-.06,2.77-2.71,5.94-5.6,6.64A43.26,43.26,0,0,1,455.22,385.64Z" transform="translate(-0.51 1.54)"/><path class="cls-2" d="M412.63,211.93c1.38.65,2.74.76,3.87-.46s.7-2.55.1-3.91a94.27,94.27,0,0,1-6-19.28c-.14-.67-1-1.68.34-2.14,3.71-1.3,4.31-4.3,4.15-7.73,10.18,6.21,10.77,30.89.76,40.4a12.6,12.6,0,0,0-3.78-6.34Z" transform="translate(-0.51 1.54)"/><path class="cls-2" d="M315.23,347.53c3.63,5.15,6.74,10.06,7.75,16a7.16,7.16,0,0,1,.08,1.39c-.13,3.68-2.89,7.31-5.65,7.47s-5.19-3-5.54-7C311.34,359.25,312.89,353.56,315.23,347.53Z" transform="translate(-0.51 1.54)"/><path class="cls-2" d="M408.3,222c-1.24-.74-2.11-1.65-2-3,.06-1,.51-2.35,1.75-2.08a2.73,2.73,0,0,1,2,2.76C410,220.87,409.13,221.45,408.3,222Z" transform="translate(-0.51 1.54)"/><path class="cls-2" d="M436.38,382.33c.13.44.33.89-.09,1.3l-.45-.92Z" transform="translate(-0.51 1.54)"/><path class="cls-1" d="M381.59,662.36c2.08,10.83,4.1,21.68,6.29,32.5.42,2.08-.06,2.5-2.09,2.5-3.66,0-7.31.3-11,.51-1.1.07-1.81,0-1.47-1.45q4-16.81,7.9-33.66C381.3,662.61,381.48,662.48,381.59,662.36Z" transform="translate(-0.51 1.54)"/><path class="cls-1" d="M423.31,592.16l6.23,10.71a25.67,25.67,0,0,1,1.67,2.91c.74,1.83,3.33,3.54,2.24,5.29a11.85,11.85,0,0,1-7.23,5.47,11.47,11.47,0,0,1-5.58-.13c-3.6-1-4.92-2.87-4.53-6.61C416.77,603.36,420,598,423.31,592.16Z" transform="translate(-0.51 1.54)"/><path class="cls-1" d="M423.74,581.84c-1.91-4.38-4-8.48-4.36-13.13-.15-1.81-.14-3.77,2.13-4.34s4.51-.54,5.95,1.83a8.69,8.69,0,0,1,.84,7.3C427.41,576.53,425.6,579,423.74,581.84Z" transform="translate(-0.51 1.54)"/><path class="cls-1" d="M459.06,775.24a46.71,46.71,0,0,1-1.09,12.1,21.16,21.16,0,0,1-1.11,3.16c-.33.78-.75,1.61-1.72,1.67s-1.34-.86-1.74-1.59a20.1,20.1,0,0,1-1.87-6.15,45.24,45.24,0,0,1,.34-19.55c.44-1.68.67-4.13,3.19-4s3,2.26,3.3,4.29A49.79,49.79,0,0,1,459.06,775.24Z" transform="translate(-0.51 1.54)"/><path class="cls-1" d="M505.81,775.54c-.11,4.32-.23,8.63-1.45,12.82a11,11,0,0,1-1.07,2.58c-1,1.69-2.07,1.77-3.07-.05-1.75-3.21-2.23-6.77-2.57-10.3-.5-5.24-.61-10.51.89-15.65.5-1.71.7-4.14,3.14-4s3,2.15,3.31,4.25A64.35,64.35,0,0,1,505.81,775.54Z" transform="translate(-0.51 1.54)"/></svg>